<svg width="130" height="150" viewBox="0 0 130 150" fill="none" xmlns="http://www.w3.org/2000/svg">
<path fill-rule="evenodd" clip-rule="evenodd" d="M128.374 36.4668C127.559 35.3054 126.738 34.949 126.738 34.949C126.738 34.949 77.7118 6.31038 69.0655 1.32283C68.3616 0.909954 67.979 0.685662 67.979 0.685662C67.979 0.685662 66.8565 -0.0429731 65.0001 0.00203557C63.1435 -0.043003 62.021 0.685656 62.021 0.685656C62.021 0.685656 61.6381 0.910118 60.9337 1.3233C52.2853 6.31214 3.2622 34.949 3.2622 34.949C3.2622 34.949 2.44113 35.3054 1.62622 36.4668C0.0416485 37.9333 0.000643072 39.844 0.000643072 39.844C0.000643072 39.844 0.00629795 46.3361 0.0123291 55.3737C0.00893934 69.2254 0.0180467 90.3972 0.0233808 101.113C0.0211977 104.044 0.0177955 106.417 0.0128495 107.989C0.00215808 108.153 -0.00794807 108.434 0.00985749 108.797C0.00717583 109.406 0.00411865 109.816 0.000649206 110C-0.0572408 113.106 3.77571 115.439 3.77571 115.439L61.4817 149.157C62.7124 149.814 63.9318 150.016 65 149.999C66.0683 150.016 67.2876 149.814 68.5183 149.157L126.224 115.439C126.224 115.439 130.057 113.106 129.999 110C129.996 109.816 129.993 109.406 129.99 108.797C130.008 108.434 129.998 108.153 129.987 107.989C129.982 106.417 129.979 104.042 129.977 101.108C129.982 90.3932 129.991 69.2332 129.988 55.3834C129.994 46.3408 129.999 39.844 129.999 39.844C129.999 39.844 129.958 37.9333 128.374 36.4668ZM106.934 109.859C95.1185 116.733 67.2839 133.037 67.2839 133.037C67.2839 133.037 66.343 133.551 65 133.672C63.657 133.551 62.7161 133.037 62.7161 133.037C62.7161 133.037 34.8815 116.733 23.0663 109.859L62.2311 85.8767C62.2311 85.8767 64.1115 84.6202 65 81.8386C65.8884 84.6202 67.7689 85.8767 67.7689 85.8767L106.934 109.859ZM65 66.59L64.5453 66.3114V66.8685L14.4437 97.5593C14.4421 94.7954 14.4401 90.4328 14.4386 85.4388L14.434 63.3262C14.4345 56.4749 14.4376 51.0209 14.4457 49.6164C14.4746 44.7445 16.9863 43.6572 16.9863 43.6572C16.9863 43.6572 60.3218 18.4244 63.1391 16.8432C63.8188 16.5491 64.4436 16.3982 65 16.3383C65.5564 16.3982 66.1812 16.5491 66.8609 16.8432C69.6783 18.4244 113.014 43.6572 113.014 43.6572C113.014 43.6572 115.525 44.7445 115.554 49.6164C115.562 51.0209 115.565 56.4749 115.566 63.3262L115.561 85.4388C115.56 90.4328 115.558 94.7954 115.556 97.5593L65.4547 66.8685V66.3114L65 66.59Z" fill="#38ABBE"/>
</svg>
